<svg fill="none" xmlns="http://www.w3.org/2000/svg" viewBox="0 0 36 36"><path d="M.312 10.443v14.185c0 2.107 0 3.16.177 4.035a8.894 8.894 0 0 0 6.948 6.948c.875.178 1.929.178 4.036.178h13.022c3.155 0 4.732 0 6.002-.439a8.005 8.005 0 0 0 4.953-4.953c.439-1.27.439-2.847.439-6.002V10.443c0-1.242 0-1.862-.062-2.384A8.894 8.894 0 0 0 28.042.274C27.52.212 26.899.212 25.657.212h-15.18c-3.048 0-4.572 0-5.783.473a6.893 6.893 0 0 0-3.909 3.91C.312 5.804.312 7.35.312 10.442Z" fill="#E1E1E1"/><rect x="1.201" y="1.101" width="31.13" height="31.13" rx="6.671" fill="#fff"/><path d="M17.281 28.092c3.9 0 6.529-1.899 7.144-4.824L20.381 23c-.441 1.2-1.57 1.827-3.028 1.827-2.187 0-3.572-1.447-3.572-3.798v-.01h10.737v-1.201c0-5.359-3.244-8.007-7.412-8.007-4.64 0-7.647 3.295-7.647 8.16 0 5 2.967 8.12 7.822 8.12Zm-3.5-9.782c.092-1.797 1.457-3.234 3.397-3.234 1.9 0 3.213 1.355 3.223 3.234h-6.62Zm1.652-8.325h3.09l3.13-4.67H17.61l-2.176 4.67Z" fill="#000"/></svg>