<svg width="183" height="37" viewBox="0 0 183 37" fill="none" xmlns="http://www.w3.org/2000/svg">
<g clip-path="url(#clip0_6_1697)">
<path d="M0.509766 10.443V24.627C0.509766 26.734 0.509766 27.787 0.687766 28.663C1.03523 30.3756 1.8795 31.9479 3.11518 33.1836C4.35085 34.4192 5.92315 35.2635 7.63577 35.611C8.51177 35.789 9.56577 35.789 11.6718 35.789H24.6938C27.8488 35.789 29.4258 35.789 30.6958 35.35C31.8428 34.9538 32.8847 34.302 33.7428 33.444C34.6008 32.5859 35.2526 31.544 35.6488 30.397C36.0878 29.127 36.0878 27.55 36.0878 24.395V10.443C36.0878 9.20098 36.0878 8.57998 36.0258 8.05797C35.7904 6.07474 34.8943 4.22845 33.482 2.81644C32.0696 1.40442 30.2231 0.508857 28.2398 0.273975C27.7198 0.211975 27.0978 0.211975 25.8568 0.211975H10.6748C7.62677 0.211975 6.10277 0.211975 4.89177 0.684975C4.00561 1.03161 3.20082 1.55795 2.52806 2.23088C1.85531 2.9038 1.32917 3.70873 0.982766 4.59497C0.510766 5.80398 0.510766 7.34998 0.510766 10.442L0.509766 10.443Z" fill="#E1E1E1"/>
<path d="M25.8594 1.10101H8.07139C4.3871 1.10101 1.40039 4.08772 1.40039 7.77201V25.56C1.40039 29.2443 4.3871 32.231 8.07139 32.231H25.8594C29.5437 32.231 32.5304 29.2443 32.5304 25.56V7.77201C32.5304 4.08772 29.5437 1.10101 25.8594 1.10101Z" fill="white"/>
<path d="M14.8229 28.082C17.1529 28.082 18.6619 27.065 19.4319 25.598H19.5549V27.784H23.7019V17.15C23.7019 13.393 20.5199 11.812 17.0089 11.812C13.2319 11.812 10.7469 13.618 10.1419 16.492L14.1859 16.821C14.4839 15.774 15.4179 15.004 16.9879 15.004C18.4769 15.004 19.3279 15.754 19.3279 17.047V17.108C19.3279 18.125 18.2509 18.258 15.5099 18.525C12.3899 18.812 9.58691 19.859 9.58691 23.38C9.58691 26.5 11.8149 28.082 14.8229 28.082ZM16.0749 25.064C14.7299 25.064 13.7649 24.438 13.7649 23.237C13.7649 22.005 14.7809 21.399 16.3209 21.184C17.2759 21.05 18.8359 20.824 19.3599 20.475V22.149C19.3599 23.801 17.9939 25.064 16.0749 25.064Z" fill="black"/>
</g>
<g clip-path="url(#clip1_6_1697)">
<path d="M49.3115 10.443V24.628C49.3115 26.735 49.3115 27.788 49.4885 28.663C49.836 30.3756 50.6803 31.9479 51.9159 33.1836C53.1516 34.4192 54.7239 35.2635 56.4365 35.611C57.3115 35.789 58.3655 35.789 60.4725 35.789H73.4945C76.6495 35.789 78.2265 35.789 79.4965 35.35C80.6435 34.9538 81.6855 34.302 82.5435 33.444C83.4016 32.5859 84.0534 31.544 84.4495 30.397C84.8885 29.127 84.8885 27.55 84.8885 24.395V10.443C84.8885 9.20098 84.8885 8.58098 84.8265 8.05898C84.5914 6.07571 83.6956 4.22931 82.2834 2.81711C80.8712 1.40491 79.0248 0.509111 77.0415 0.273975C76.5195 0.211975 75.8985 0.211975 74.6565 0.211975H59.4765C56.4285 0.211975 54.9045 0.211975 53.6935 0.684975C52.8074 1.03161 52.0026 1.55795 51.3298 2.23088C50.6571 2.9038 50.1309 3.70873 49.7845 4.59497C49.3115 5.80398 49.3115 7.35098 49.3115 10.443Z" fill="#E1E1E1"/>
<path d="M74.6602 1.10101H56.8722C53.1879 1.10101 50.2012 4.08772 50.2012 7.77201V25.56C50.2012 29.2443 53.1879 32.231 56.8722 32.231H74.6602C78.3445 32.231 81.3312 29.2443 81.3312 25.56V7.77201C81.3312 4.08772 78.3445 1.10101 74.6602 1.10101Z" fill="white"/>
<path d="M66.281 28.092C70.181 28.092 72.81 26.193 73.425 23.268L69.381 23C68.94 24.2 67.811 24.827 66.353 24.827C64.166 24.827 62.781 23.38 62.781 21.029V21.019H73.518V19.818C73.518 14.459 70.274 11.811 66.106 11.811C61.466 11.811 58.459 15.106 58.459 19.971C58.459 24.971 61.426 28.092 66.281 28.092ZM62.781 18.31C62.873 16.513 64.238 15.076 66.178 15.076C68.078 15.076 69.391 16.431 69.401 18.31H62.781ZM64.433 9.985H67.523L70.653 5.315H66.61L64.434 9.985H64.433Z" fill="black"/>
</g>
<g clip-path="url(#clip2_6_1697)">
<path d="M97 10.6403V25.3922C97 27.5835 97 28.6792 97.185 29.5894C97.5464 31.3703 98.4244 33.0054 99.7093 34.2904C100.994 35.5754 102.629 36.4535 104.41 36.815C105.32 37 106.416 37 108.607 37H122.15C125.431 37 127.072 37 128.392 36.544C129.585 36.132 130.669 35.4541 131.561 34.5617C132.454 33.6693 133.132 32.5856 133.544 31.3927C134 30.0718 134 28.4313 134 25.1503V10.6407C134 9.34898 134 8.70332 133.935 8.16035C133.691 6.09811 132.759 4.1782 131.291 2.7097C129.822 1.24121 127.902 0.309561 125.84 0.06475C125.297 0 124.651 0 123.359 0H107.571C104.402 0 102.817 0 101.558 0.492563C100.636 0.852944 99.7995 1.40019 99.0998 2.09985C98.4002 2.79951 97.8529 3.63643 97.4926 4.55794C97 5.81686 97 7.42451 97 10.6403Z" fill="#E1E1E1"/>
<path d="M123.362 0.924988H104.862C101.031 0.924988 97.9248 4.03101 97.9248 7.86249V26.3625C97.9248 30.194 101.031 33.3 104.862 33.3H123.362C127.194 33.3 130.3 30.194 130.3 26.3625V7.86249C130.3 4.03101 127.194 0.924988 123.362 0.924988Z" fill="white"/>
<path d="M107.255 28.675H121.037V25.0453H113.223V24.9279L120.76 15.2348V12.278H107.533V15.9077H115.283V16.0247L107.255 25.9639V28.675Z" fill="black"/>
</g>
<g clip-path="url(#clip3_6_1697)">
<path d="M146.51 10.443V24.627C146.51 26.734 146.51 27.787 146.688 28.663C147.035 30.3756 147.88 31.9479 149.115 33.1836C150.351 34.4192 151.923 35.2635 153.636 35.611C154.512 35.789 155.566 35.789 157.672 35.789H170.694C173.849 35.789 175.426 35.789 176.696 35.35C177.843 34.9538 178.885 34.302 179.743 33.444C180.601 32.5859 181.253 31.544 181.649 30.397C182.088 29.127 182.088 27.55 182.088 24.395V10.443C182.088 9.20098 182.088 8.57998 182.026 8.05797C181.79 6.07474 180.894 4.22845 179.482 2.81644C178.07 1.40442 176.223 0.508857 174.24 0.273975C173.72 0.211975 173.098 0.211975 171.857 0.211975H156.675C153.627 0.211975 152.103 0.211975 150.892 0.684975C150.006 1.03161 149.201 1.55795 148.528 2.23088C147.855 2.9038 147.329 3.70873 146.983 4.59497C146.511 5.80398 146.511 7.34998 146.511 10.442L146.51 10.443Z" fill="#E1E1E1"/>
<path d="M171.859 1.10101H154.071C150.387 1.10101 147.4 4.08772 147.4 7.77201V25.56C147.4 29.2443 150.387 32.231 154.071 32.231H171.859C175.544 32.231 178.53 29.2443 178.53 25.56V7.77201C178.53 4.08772 175.544 1.10101 171.859 1.10101Z" fill="white"/>
<path d="M160.823 28.082C163.153 28.082 164.662 27.065 165.432 25.598H165.555V27.784H169.702V17.15C169.702 13.393 166.52 11.812 163.009 11.812C159.232 11.812 156.747 13.618 156.142 16.492L160.186 16.821C160.484 15.774 161.418 15.004 162.988 15.004C164.477 15.004 165.328 15.754 165.328 17.047V17.108C165.328 18.125 164.251 18.258 161.51 18.525C158.39 18.812 155.587 19.859 155.587 23.38C155.587 26.5 157.815 28.082 160.823 28.082ZM162.075 25.064C160.73 25.064 159.765 24.438 159.765 23.237C159.765 22.005 160.781 21.399 162.321 21.184C163.276 21.05 164.836 20.824 165.36 20.475V22.149C165.36 23.801 163.994 25.064 162.075 25.064Z" fill="black"/>
</g>
<g clip-path="url(#clip4_6_1697)">
<path d="M146.51 11.443V25.627C146.51 27.734 146.51 28.787 146.688 29.663C147.035 31.3756 147.88 32.9479 149.115 34.1836C150.351 35.4192 151.923 36.2635 153.636 36.611C154.512 36.789 155.566 36.789 157.672 36.789H170.694C173.849 36.789 175.426 36.789 176.696 36.35C177.843 35.9538 178.885 35.302 179.743 34.444C180.601 33.5859 181.253 32.544 181.649 31.397C182.088 30.127 182.088 28.55 182.088 25.395V11.443C182.088 10.201 182.088 9.57998 182.026 9.05797C181.79 7.07474 180.894 5.22845 179.482 3.81644C178.07 2.40442 176.223 1.50886 174.24 1.27398C173.72 1.21198 173.098 1.21198 171.857 1.21198H156.675C153.627 1.21198 152.103 1.21198 150.892 1.68498C150.006 2.03161 149.201 2.55795 148.528 3.23088C147.855 3.9038 147.329 4.70873 146.983 5.59497C146.511 6.80398 146.511 8.34998 146.511 11.442L146.51 11.443Z" fill="#E1E1E1"/>
<path d="M171.859 2.10101H154.071C150.387 2.10101 147.4 5.08772 147.4 8.77201V26.56C147.4 30.2443 150.387 33.231 154.071 33.231H171.859C175.544 33.231 178.53 30.2443 178.53 26.56V8.77201C178.53 5.08772 175.544 2.10101 171.859 2.10101Z" fill="white"/>
<path d="M160.823 29.082C163.153 29.082 164.662 28.065 165.432 26.598H165.555V28.784H169.702V18.15C169.702 14.393 166.52 12.812 163.009 12.812C159.232 12.812 156.747 14.618 156.142 17.492L160.186 17.821C160.484 16.774 161.418 16.004 162.988 16.004C164.477 16.004 165.328 16.754 165.328 18.047V18.108C165.328 19.125 164.251 19.258 161.51 19.525C158.39 19.812 155.587 20.859 155.587 24.38C155.587 27.5 157.815 29.082 160.823 29.082ZM162.075 26.064C160.73 26.064 159.765 25.438 159.765 24.237C159.765 23.005 160.781 22.399 162.321 22.184C163.276 22.05 164.836 21.824 165.36 21.475V23.149C165.36 24.801 163.994 26.064 162.075 26.064Z" fill="black"/>
</g>
<defs>
<clipPath id="clip0_6_1697">
<rect width="37" height="36" fill="white"/>
</clipPath>
<clipPath id="clip1_6_1697">
<rect width="36" height="36" fill="white" transform="translate(49)"/>
</clipPath>
<clipPath id="clip2_6_1697">
<rect width="37" height="37" fill="white" transform="translate(97)"/>
</clipPath>
<clipPath id="clip3_6_1697">
<rect width="37" height="36" fill="white" transform="translate(146)"/>
</clipPath>
<clipPath id="clip4_6_1697">
<rect width="37" height="36" fill="white" transform="translate(146 1)"/>
</clipPath>
</defs>
</svg>
